<?xml version="1.0" encoding="UTF-8"?>
<svg version="1.1" xmlns="http://www.w3.org/2000/svg" width="512" height="512">
<path d="M0 0 C168.96 0 337.92 0 512 0 C512 168.96 512 337.92 512 512 C343.04 512 174.08 512 0 512 C0 343.04 0 174.08 0 0 Z " fill="#FEFEFE" transform="translate(0,0)"/>
<path d="M0 0 C37.62 0 75.24 0 114 0 C114 11.22 114 22.44 114 34 C93.19354839 38.16129032 93.19354839 38.16129032 84 38 C84.1858667 38.70793701 84.3717334 39.41587402 84.56323242 40.14526367 C88.32454609 54.49621112 91.98120784 68.85950195 95.36425781 83.30419922 C96.28722192 87.21793567 97.23286344 91.12612096 98.17651367 95.03491211 C100.18124229 103.34003263 102.15672666 111.64952105 104.04931641 119.98095703 C106.88865014 132.46808959 109.94235155 144.89308279 113.0625 157.3125 C119.08169263 181.28597138 119.08169263 181.28597138 121.125 189.75 C121.32488525 190.56380127 121.52477051 191.37760254 121.73071289 192.21606445 C122.5420366 195.61129821 123 198.48349624 123 202 C123.66 202 124.32 202 125 202 C125.11214844 201.21367187 125.22429687 200.42734375 125.33984375 199.6171875 C126.17420205 195.04549647 127.34146185 190.60692356 128.5625 186.125 C128.82281006 185.16827393 129.08312012 184.21154785 129.35131836 183.22583008 C131.628815 175.02484727 134.24443504 166.95761639 137.01977539 158.91259766 C138.9307176 153.34574833 140.6849474 147.75013688 142.32421875 142.09765625 C145.00167938 132.87218609 147.91127756 123.72595274 150.84338379 114.57873535 C152.41045081 109.68932588 153.97109932 104.79787008 155.53125 99.90625 C155.83798645 98.94471008 156.1447229 97.98317017 156.46075439 96.99249268 C158.76573978 89.75753447 161.02165486 82.5089521 163.25 75.25 C168.64239432 57.70586392 174.32987928 40.2538736 179.96972656 22.78808594 C180.35884216 21.58154861 180.74795776 20.37501129 181.14886475 19.13191223 C181.88880213 16.83782917 182.62984359 14.54410184 183.37213135 12.2507782 C183.86951813 10.70823112 183.86951813 10.70823112 184.37695312 9.13452148 C184.66735474 8.23603989 184.95775635 7.33755829 185.25695801 6.41184998 C185.90906284 4.29517415 186.46282015 2.14871941 187 0 C201.52 0 216.04 0 231 0 C232.04414063 3.32578125 233.08828125 6.6515625 234.1640625 10.078125 C242.65718188 37.09132629 251.25784673 64.0664003 260 91 C270.36024128 122.92091215 280.61046349 154.87856678 290.53076172 186.93945312 C290.76041122 187.68020081 290.99006073 188.42094849 291.22666931 189.18414307 C291.81630494 191.08865792 292.40328393 192.99399476 292.98999023 194.89941406 C293.88794461 197.65600593 294.88464877 200.32516724 296 203 C299.43800072 190.06051498 302.72758327 177.09686315 305.81665039 164.06958008 C307.31616647 157.7725942 308.88882868 151.50285715 310.5625 145.25 C312.99524479 136.14987537 315.17613663 126.99818672 317.33203125 117.82910156 C318.5195948 112.7993185 319.72965587 107.77494379 320.9375 102.75 C321.31442993 101.17847168 321.31442993 101.17847168 321.69897461 99.57519531 C322.96051571 94.31669627 324.22720788 89.05952811 325.50390625 83.8046875 C329.19494175 68.57781394 332.6506223 53.30554322 336 38 C335.42145264 37.9498877 334.84290527 37.89977539 334.24682617 37.84814453 C331.55989329 37.61235955 328.87372556 37.36870631 326.1875 37.125 C325.27806641 37.04636719 324.36863281 36.96773437 323.43164062 36.88671875 C322.51962891 36.80292969 321.60761719 36.71914062 320.66796875 36.6328125 C319.84578857 36.55949707 319.0236084 36.48618164 318.17651367 36.41064453 C313.42273451 35.79609864 308.71602039 34.85745825 304 34 C304 22.78 304 11.56 304 0 C341.29 0 378.58 0 417 0 C417 11.22 417 22.44 417 34 C411.4621875 34.7425 411.4621875 34.7425 405.8125 35.5 C404.6572583 35.65662109 403.5020166 35.81324219 402.31176758 35.97460938 C401.39032959 36.09642578 400.4688916 36.21824219 399.51953125 36.34375 C398.58214111 36.46943359 397.64475098 36.59511719 396.67895508 36.72460938 C394.09682192 36.99004692 391.59349011 37.04936064 389 37 C388.87044922 38.00353516 388.87044922 38.00353516 388.73828125 39.02734375 C387.72361259 45.96246438 386.06716132 52.4824753 384.02636719 59.16479492 C382.36171136 64.65562963 380.91863977 70.17548579 379.5625 75.75 C377.89646843 82.56808516 376.08793772 89.32396093 374.125 96.0625 C371.76430387 104.17160976 369.59458846 112.3182294 367.5 120.5 C365.18508362 129.5424039 362.74150419 138.53000613 360.13110352 147.49121094 C358.18872841 154.20916089 356.48249142 160.97068948 354.82373047 167.76342773 C353.34627629 173.75914296 351.6586157 179.66619925 349.87255859 185.57617188 C348.27195223 190.93065552 346.8881421 196.32145609 345.5625 201.75 C343.91598651 208.48491684 342.13144744 215.15744552 340.1875 221.8125 C338.3750686 228.02222814 336.65527087 234.24881725 335.05078125 240.515625 C334.88128464 241.1775737 334.71178802 241.8395224 334.53715515 242.52153015 C333.70639628 245.77467908 332.88302451 249.02945292 332.06713867 252.28637695 C329.35544484 262.98628935 326.18282876 273.3905708 323 284 C305.84 284 288.68 284 271 284 C268.958125 278.080625 266.91625 272.16125 264.8125 266.0625 C263.86274292 263.31885132 263.86274292 263.31885132 262.89379883 260.51977539 C259.95272525 251.97961877 257.17814925 243.42303413 254.68049622 234.7424469 C253.14392703 229.41743094 251.40733882 224.20183316 249.5 219 C247.39153697 213.24964627 245.52965052 207.4636922 243.8359375 201.578125 C240.25858765 189.19935886 236.15157044 176.98806885 232.125 164.75 C231.33961803 162.35554277 230.55446059 159.96101189 229.76953125 157.56640625 C226.54811342 147.74727408 223.31847891 137.93163 220.02220154 128.13734436 C217.4820819 120.5812912 214.99235022 113.05265195 213.0625 105.3125 C212.85560547 104.51779297 212.64871094 103.72308594 212.43554688 102.90429688 C211 97.3099564 211 97.3099564 211 95 C210.34 95 209.68 95 209 95 C208.87055496 95.71208618 208.74110992 96.42417236 208.60774231 97.15783691 C207.99705855 100.01375599 207.19035191 102.70157549 206.27612305 105.47460938 C205.74122002 107.10434189 205.74122002 107.10434189 205.19551086 108.76699829 C204.60953377 110.53749039 204.60953377 110.53749039 204.01171875 112.34375 C203.3823141 114.25748944 202.75290961 116.17122894 202.12351131 118.08497047 C201.44824912 120.13625582 200.77154946 122.1870618 200.09442139 124.23773193 C198.66895095 128.55483857 197.24747364 132.87325335 195.82666016 137.19189453 C194.10312778 142.42991456 192.37875023 147.66765468 190.6532402 152.90502357 C186.45651527 165.64383046 182.27752292 178.3884247 178.10113525 191.13391113 C176.87650376 194.87041183 175.6510214 198.60663245 174.42529297 202.34277344 C170.35362111 214.75540364 166.2898227 227.17052928 162.2400589 239.59032059 C160.90760878 243.67560241 159.5736194 247.76038192 158.23960114 251.8451519 C157.17469685 255.10648317 156.11099557 258.36819716 155.04998779 261.63079834 C153.88625262 265.20786697 152.71891371 268.7837404 151.55078125 272.359375 C151.20389755 273.4290451 150.85701385 274.49871521 150.49961853 275.60079956 C150.18303787 276.56752594 149.86645721 277.53425232 149.5402832 278.53027344 C149.26529495 279.3744281 148.9903067 280.21858276 148.70698547 281.08831787 C148 283 148 283 147 284 C145.37325222 284.09340434 143.74245949 284.11745171 142.11303711 284.11352539 C141.07203354 284.11344986 140.03102997 284.11337433 138.95848083 284.11329651 C137.8262056 284.10813522 136.69393036 284.10297394 135.52734375 284.09765625 C133.79817467 284.09553383 133.79817467 284.09553383 132.03407288 284.09336853 C128.33518936 284.08775005 124.63636536 284.07519442 120.9375 284.0625 C118.43684983 284.05748738 115.93619871 284.05292406 113.43554688 284.04882812 C107.29034412 284.03777462 101.14517631 284.02101852 95 284 C92.11608074 274.37933652 89.34636896 264.76855649 87 255 C85.3350231 248.19925486 83.6101234 241.44580427 81.5625 234.75 C79.29371626 227.31481618 77.41917337 219.79758375 75.5625 212.25 C73.29085103 203.01613353 70.87340826 193.85629493 68.19946289 184.73144531 C66.00652399 177.18406237 64.12131492 169.57283391 62.24975586 161.94042969 C60.63754541 155.41599091 58.8850972 148.95056697 57 142.5 C54.52502756 134.03095367 52.35113913 125.51011427 50.25 116.94140625 C48.63770311 110.41664226 46.88519163 103.95089009 45 97.5 C42.52914996 89.04506001 40.35297114 80.53965022 38.26318359 71.9831543 C36.33369595 64.15121749 34.16957612 56.40430117 31.828125 48.68554688 C31.46847656 47.47415039 31.46847656 47.47415039 31.1015625 46.23828125 C30.88838379 45.53743408 30.67520508 44.83658691 30.45556641 44.11450195 C29.9345809 41.69635861 29.92402756 39.46641014 30 37 C29.30438965 36.94465088 28.6087793 36.88930176 27.89208984 36.83227539 C24.71950822 36.57833145 21.54725817 36.32045179 18.375 36.0625 C17.28058594 35.97548828 16.18617187 35.88847656 15.05859375 35.79882812 C13.99511719 35.71181641 12.93164062 35.62480469 11.8359375 35.53515625 C10.37486572 35.41732788 10.37486572 35.41732788 8.88427734 35.29711914 C5.90720869 34.99044125 2.95210236 34.49201706 0 34 C0 22.78 0 11.56 0 0 Z " fill="#222222" transform="translate(47,118)"/>
</svg>
